<svg width="1187" height="711" xmlns="http://www.w3.org/2000/svg"><g><path d="M-67.67843851586804,-170.2015086240135L-164.35709395911545,346.9345404719934L-66.13928130129352,200.5077605531551Z" fill="#bd3937" stroke="#bd3937"></path><path d="M-67.67843851586804,-170.2015086240135L-66.13928130129352,200.5077605531551L7.544296151027083,129.6915346174501Z" fill="#c2162a" stroke="#c2162a"></path><path d="M-67.67843851586804,-170.2015086240135L7.544296151027083,129.6915346174501L38.05600870633498,-133.3658393053338Z" fill="#9c0029" stroke="#9c0029"></path><path d="M-67.67843851586804,-170.2015086240135L38.05600870633498,-133.3658393053338L480.94667311990634,-111.1557233822532Z" fill="#9a202d" stroke="#9a202d"></path><path d="M-67.67843851586804,-170.2015086240135L480.94667311990634,-111.1557233822532L882.2001137654297,-205.4120115051046Z" fill="#a06755" stroke="#a06755"></path><path d="M38.05600870633498,-133.3658393053338L7.544296151027083,129.6915346174501L235.8206616807729,-28.486360616516322Z" fill="#c5132a" stroke="#c5132a"></path><path d="M38.05600870633498,-133.3658393053338L235.8206616807729,-28.486360616516322L480.94667311990634,-111.1557233822532Z" fill="#b83b3a" stroke="#b83b3a"></path><path d="M235.8206616807729,-28.486360616516322L7.544296151027083,129.6915346174501L67.01547270873562,257.2603426594287Z" fill="#e84b36" stroke="#e84b36"></path><path d="M235.8206616807729,-28.486360616516322L67.01547270873562,257.2603426594287L388.038627973292,189.8957267194055Z" fill="#f97448" stroke="#f97448"></path><path d="M235.8206616807729,-28.486360616516322L388.038627973292,189.8957267194055L549.5091063994914,41.35905369417742Z" fill="#fd7a4f" stroke="#fd7a4f"></path><path d="M235.8206616807729,-28.486360616516322L549.5091063994914,41.35905369417742L480.94667311990634,-111.1557233822532Z" fill="#d46554" stroke="#d46554"></path><path d="M480.94667311990634,-111.1557233822532L549.5091063994914,41.35905369417742L773.1115163583308,-66.50314689148217Z" fill="#bf7992" stroke="#bf7992"></path><path d="M480.94667311990634,-111.1557233822532L773.1115163583308,-66.50314689148217L882.2001137654297,-205.4120115051046Z" fill="#846d8a" stroke="#846d8a"></path><path d="M773.1115163583308,-66.50314689148217L549.5091063994914,41.35905369417742L829.800355033949,58.749701322522014Z" fill="#bc708b" stroke="#bc708b"></path><path d="M773.1115163583308,-66.50314689148217L829.800355033949,58.749701322522014L1061.1237229476683,-41.225370441097766Z" fill="#8b4978" stroke="#8b4978"></path><path d="M773.1115163583308,-66.50314689148217L1061.1237229476683,-41.225370441097766L882.2001137654297,-205.4120115051046Z" fill="#634576" stroke="#634576"></path><path d="M882.2001137654297,-205.4120115051046L1061.1237229476683,-41.225370441097766L1400.086791452486,-91.04555074358359Z" fill="#490f5a" stroke="#490f5a"></path><path d="M1061.1237229476683,-41.225370441097766L829.800355033949,58.749701322522014L886.5781355719082,164.36851486796513Z" fill="#a25974" stroke="#a25974"></path><path d="M1061.1237229476683,-41.225370441097766L886.5781355719082,164.36851486796513L1119.5834265346639,184.42272102925926Z" fill="#9c546f" stroke="#9c546f"></path><path d="M1061.1237229476683,-41.225370441097766L1119.5834265346639,184.42272102925926L1310.7281064474955,64.10693305777386Z" fill="#8f1d55" stroke="#8f1d55"></path><path d="M1061.1237229476683,-41.225370441097766L1310.7281064474955,64.10693305777386L1400.086791452486,-91.04555074358359Z" fill="#620049" stroke="#620049"></path><path d="M1400.086791452486,-91.04555074358359L1310.7281064474955,64.10693305777386L1454.3425252474844,347.1376063465141Z" fill="#802f40" stroke="#802f40"></path><path d="M-66.13928130129352,200.5077605531551L-164.35709395911545,346.9345404719934L67.01547270873562,257.2603426594287Z" fill="#c77a63" stroke="#c77a63"></path><path d="M-66.13928130129352,200.5077605531551L67.01547270873562,257.2603426594287L7.544296151027083,129.6915346174501Z" fill="#d35f48" stroke="#d35f48"></path><path d="M388.038627973292,189.8957267194055L67.01547270873562,257.2603426594287L248.46395580796525,374.9462852021679Z" fill="#f9b273" stroke="#f9b273"></path><path d="M388.038627973292,189.8957267194055L248.46395580796525,374.9462852021679L526.8621567869559,360.289371649269Z" fill="#fedd9b" stroke="#fedd9b"></path><path d="M388.038627973292,189.8957267194055L526.8621567869559,360.289371649269L549.5091063994914,41.35905369417742Z" fill="#fdd084" stroke="#fdd084"></path><path d="M549.5091063994914,41.35905369417742L526.8621567869559,360.289371649269L684.4723348226398,404.5058088004589Z" fill="#f1f3c9" stroke="#f1f3c9"></path><path d="M549.5091063994914,41.35905369417742L684.4723348226398,404.5058088004589L829.800355033949,58.749701322522014Z" fill="#dbbea5" stroke="#dbbea5"></path><path d="M829.800355033949,58.749701322522014L684.4723348226398,404.5058088004589L886.5781355719082,164.36851486796513Z" fill="#c1c2a4" stroke="#c1c2a4"></path><path d="M886.5781355719082,164.36851486796513L684.4723348226398,404.5058088004589L982.8357457299717,384.6084342780523Z" fill="#b6d1d0" stroke="#b6d1d0"></path><path d="M886.5781355719082,164.36851486796513L982.8357457299717,384.6084342780523L1119.5834265346639,184.42272102925926Z" fill="#9ea09a" stroke="#9ea09a"></path><path d="M1119.5834265346639,184.42272102925926L982.8357457299717,384.6084342780523L1171.8419460137375,409.74617584375665Z" fill="#9695b6" stroke="#9695b6"></path><path d="M1119.5834265346639,184.42272102925926L1171.8419460137375,409.74617584375665L1454.3425252474844,347.1376063465141Z" fill="#89809a" stroke="#89809a"></path><path d="M1119.5834265346639,184.42272102925926L1454.3425252474844,347.1376063465141L1310.7281064474955,64.10693305777386Z" fill="#856063" stroke="#856063"></path><path d="M-164.35709395911545,346.9345404719934L-192.68482777755708,560.1465573697351L139.23185768304393,437.31685389764607Z" fill="#9f7891" stroke="#9f7891"></path><path d="M-164.35709395911545,346.9345404719934L139.23185768304393,437.31685389764607L67.01547270873562,257.2603426594287Z" fill="#d5838e" stroke="#d5838e"></path><path d="M67.01547270873562,257.2603426594287L139.23185768304393,437.31685389764607L248.46395580796525,374.9462852021679Z" fill="#efa097" stroke="#efa097"></path><path d="M248.46395580796525,374.9462852021679L139.23185768304393,437.31685389764607L409.28291564108804,495.0113056926057Z" fill="#ddbba4" stroke="#ddbba4"></path><path d="M248.46395580796525,374.9462852021679L409.28291564108804,495.0113056926057L526.8621567869559,360.289371649269Z" fill="#ebdfb8" stroke="#ebdfb8"></path><path d="M526.8621567869559,360.289371649269L409.28291564108804,495.0113056926057L472.95211892109364,559.3907832261175Z" fill="#d0dfc5" stroke="#d0dfc5"></path><path d="M526.8621567869559,360.289371649269L472.95211892109364,559.3907832261175L684.4723348226398,404.5058088004589Z" fill="#d3f2ed" stroke="#d3f2ed"></path><path d="M684.4723348226398,404.5058088004589L472.95211892109364,559.3907832261175L635.6003109086305,682.2584687755443Z" fill="#a0c8ec" stroke="#a0c8ec"></path><path d="M684.4723348226398,404.5058088004589L635.6003109086305,682.2584687755443L820.6585329584777,614.348742517177Z" fill="#7fb3e1" stroke="#7fb3e1"></path><path d="M684.4723348226398,404.5058088004589L820.6585329584777,614.348742517177L881.7092536808923,510.1568190869875Z" fill="#83bfe6" stroke="#83bfe6"></path><path d="M684.4723348226398,404.5058088004589L881.7092536808923,510.1568190869875L982.8357457299717,384.6084342780523Z" fill="#9ad0e5" stroke="#9ad0e5"></path><path d="M982.8357457299717,384.6084342780523L881.7092536808923,510.1568190869875L1102.5115017802455,650.4445345443673Z" fill="#5d8fce" stroke="#5d8fce"></path><path d="M982.8357457299717,384.6084342780523L1102.5115017802455,650.4445345443673L1171.8419460137375,409.74617584375665Z" fill="#6483c5" stroke="#6483c5"></path><path d="M1171.8419460137375,409.74617584375665L1102.5115017802455,650.4445345443673L1210.5392342316918,460.88909881655127Z" fill="#5265b9" stroke="#5265b9"></path><path d="M1171.8419460137375,409.74617584375665L1210.5392342316918,460.88909881655127L1454.3425252474844,347.1376063465141Z" fill="#7580af" stroke="#7580af"></path><path d="M1454.3425252474844,347.1376063465141L1210.5392342316918,460.88909881655127L1261.157991697546,569.0374816115946Z" fill="#5b75a9" stroke="#5b75a9"></path><path d="M1454.3425252474844,347.1376063465141L1261.157991697546,569.0374816115946L1462.8395785577595,809.7251898818649Z" fill="#28428a" stroke="#28428a"></path><path d="M-192.68482777755708,560.1465573697351L-130.67590065998957,731.2931411038153L139.23185768304393,437.31685389764607Z" fill="#6d427c" stroke="#6d427c"></path><path d="M139.23185768304393,437.31685389764607L-130.67590065998957,731.2931411038153L1.2871119263581932,828.0017161276191Z" fill="#6c1366" stroke="#6c1366"></path><path d="M139.23185768304393,437.31685389764607L1.2871119263581932,828.0017161276191L379.33802566258237,837.5205185520463Z" fill="#852663" stroke="#852663"></path><path d="M139.23185768304393,437.31685389764607L379.33802566258237,837.5205185520463L409.28291564108804,495.0113056926057Z" fill="#a28591" stroke="#a28591"></path><path d="M409.28291564108804,495.0113056926057L379.33802566258237,837.5205185520463L472.95211892109364,559.3907832261175Z" fill="#9e8a99" stroke="#9e8a99"></path><path d="M472.95211892109364,559.3907832261175L379.33802566258237,837.5205185520463L507.18702893704176,738.1328384228982Z" fill="#906c8a" stroke="#906c8a"></path><path d="M472.95211892109364,559.3907832261175L507.18702893704176,738.1328384228982L635.6003109086305,682.2584687755443Z" fill="#918bb8" stroke="#918bb8"></path><path d="M820.6585329584777,614.348742517177L635.6003109086305,682.2584687755443L854.034154813271,638.1998384138569Z" fill="#6480c6" stroke="#6480c6"></path><path d="M820.6585329584777,614.348742517177L854.034154813271,638.1998384138569L881.7092536808923,510.1568190869875Z" fill="#5c8dcd" stroke="#5c8dcd"></path><path d="M881.7092536808923,510.1568190869875L854.034154813271,638.1998384138569L1102.5115017802455,650.4445345443673Z" fill="#4771be" stroke="#4771be"></path><path d="M1210.5392342316918,460.88909881655127L1102.5115017802455,650.4445345443673L1261.157991697546,569.0374816115946Z" fill="#3b4aa8" stroke="#3b4aa8"></path><path d="M1261.157991697546,569.0374816115946L1102.5115017802455,650.4445345443673L1462.8395785577595,809.7251898818649Z" fill="#1e0d7f" stroke="#1e0d7f"></path><path d="M-130.67590065998957,731.2931411038153L-70.8270570798777,864.3989887484349L1.2871119263581932,828.0017161276191Z" fill="#450040" stroke="#450040"></path><path d="M1.2871119263581932,828.0017161276191L-70.8270570798777,864.3989887484349L31.417625080794096,970.5047729727812Z" fill="#50002c" stroke="#50002c"></path><path d="M1.2871119263581932,828.0017161276191L31.417625080794096,970.5047729727812L379.33802566258237,837.5205185520463Z" fill="#6e1d31" stroke="#6e1d31"></path><path d="M379.33802566258237,837.5205185520463L31.417625080794096,970.5047729727812L357.1575065678917,1024.7725279536098Z" fill="#7b3c2e" stroke="#7b3c2e"></path><path d="M379.33802566258237,837.5205185520463L357.1575065678917,1024.7725279536098L423.1887908675708,981.7656109272502Z" fill="#7f5e40" stroke="#7f5e40"></path><path d="M379.33802566258237,837.5205185520463L423.1887908675708,981.7656109272502L507.18702893704176,738.1328384228982Z" fill="#7f6862" stroke="#7f6862"></path><path d="M507.18702893704176,738.1328384228982L423.1887908675708,981.7656109272502L724.5628325664438,898.8240613974631Z" fill="#767686" stroke="#767686"></path><path d="M507.18702893704176,738.1328384228982L724.5628325664438,898.8240613974631L635.6003109086305,682.2584687755443Z" fill="#7077b1" stroke="#7077b1"></path><path d="M635.6003109086305,682.2584687755443L724.5628325664438,898.8240613974631L854.034154813271,638.1998384138569Z" fill="#5c68b1" stroke="#5c68b1"></path><path d="M854.034154813271,638.1998384138569L724.5628325664438,898.8240613974631L943.9547423436306,924.5675436523743Z" fill="#385492" stroke="#385492"></path><path d="M854.034154813271,638.1998384138569L943.9547423436306,924.5675436523743L1102.5115017802455,650.4445345443673Z" fill="#2e3697" stroke="#2e3697"></path><path d="M1102.5115017802455,650.4445345443673L943.9547423436306,924.5675436523743L1171.4456127095036,952.6217487989925Z" fill="#181a6f" stroke="#181a6f"></path><path d="M1102.5115017802455,650.4445345443673L1171.4456127095036,952.6217487989925L1462.8395785577595,809.7251898818649Z" fill="#0b0062" stroke="#0b0062"></path><path d="M1462.8395785577595,809.7251898818649L1171.4456127095036,952.6217487989925L1407.9184053372592,1036.8505686242133Z" fill="#010033" stroke="#010033"></path><path d="M357.1575065678917,1024.7725279536098L1407.9184053372592,1036.8505686242133L943.9547423436306,924.5675436523743Z" fill="#2c4660" stroke="#2c4660"></path><path d="M357.1575065678917,1024.7725279536098L943.9547423436306,924.5675436523743L724.5628325664438,898.8240613974631Z" fill="#5e7180" stroke="#5e7180"></path><path d="M357.1575065678917,1024.7725279536098L724.5628325664438,898.8240613974631L423.1887908675708,981.7656109272502Z" fill="#7c7258" stroke="#7c7258"></path><path d="M943.9547423436306,924.5675436523743L1407.9184053372592,1036.8505686242133L1171.4456127095036,952.6217487989925Z" fill="#100040" stroke="#100040"></path></g></svg>